<svg width="446" height="422" viewBox="0 0 446 422" fill="none" xmlns="http://www.w3.org/2000/svg">
<path d="M380.309 62.1895L445.454 211L380.309 359.81L223 421.462L65.6904 359.81L0.544922 211L65.6904 62.1895L223 0.537109L380.309 62.1895Z" fill="black" stroke="white"/>
<path d="M167.616 360.773C177.427 374.074 187.856 378.326 210.929 383L216.628 344.246L184.143 308.912L220.618 318.6V301.503L184.143 285.545L178.444 259.899L203.52 267.878L220.618 259.899V241.092L210.929 250.211L203.52 244.512L167.616 232.543L148.809 187.52L139.12 151.616L148.809 139.078H124.873L88.9681 102.604L100.366 91.7752H88.9681V84.9363L100.366 61L88.9681 68.9788L77 95.7646L81.5593 112.862L114.044 151.616L130.002 194.359L148.809 237.673L167.616 255.91H159.637V267.878L167.616 278.136L159.637 285.545L167.616 296.943V323.729L159.637 332.848L167.616 360.773Z" fill="white" stroke="white" stroke-width="5"/>
<path d="M278.179 360.773C268.368 374.074 257.939 378.326 234.866 383L229.167 344.246L261.652 308.912L225.177 318.6V301.503L261.652 285.545L267.351 259.899L242.275 267.878L225.177 259.899V241.092L234.866 250.211L242.275 244.512L278.179 232.543L296.986 187.52L306.675 151.616L296.986 139.078H320.922L356.827 102.604L345.429 91.7752H356.827V84.9363L345.429 61L356.827 68.9788L368.795 95.7646L364.236 112.862L331.751 151.616L315.793 194.359L296.986 237.673L278.179 255.91H286.158V267.878L278.179 278.136L286.158 285.545L278.179 296.943V323.729L286.158 332.848L278.179 360.773Z" fill="white" stroke="white" stroke-width="5"/>
</svg>
